# Wavefront OBJ file automatically generated by Tiled2Unity

# Vertices (Count = 298)
v -800 -480 0
v -880 -480 0
v -880 -400 0
v -800 -400 0
v -960 -480 0
v -960 -400 0
v -1040 -480 0
v -1040 -400 0
v -1120 -480 0
v -1120 -400 0
v -1200 -480 0
v -1200 -400 0
v -1280 -480 0
v -1280 -400 0
v -1360 -480 0
v -1360 -400 0
v -1440 -480 0
v -1440 -400 0
v -1520 -480 0
v -1520 -400 0
v -1600 -480 0
v -1600 -400 0
v -1680 -480 0
v -1680 -400 0
v -1760 -480 0
v -1760 -400 0
v -1840 -480 0
v -1840 -400 0
v -1920 -480 0
v -1920 -400 0
v -2000 -480 0
v -2000 -400 0
v -2080 -480 0
v -2080 -400 0
v -2160 -480 0
v -2160 -400 0
v -2240 -480 0
v -2240 -400 0
v -2320 -480 0
v -2320 -400 0
v -800 -560 0
v -880 -560 0
v -960 -560 0
v -1040 -560 0
v -1120 -560 0
v -1200 -560 0
v -1280 -560 0
v -1360 -560 0
v -1440 -560 0
v -1520 -560 0
v -1600 -560 0
v -1680 -560 0
v -1760 -560 0
v -1840 -560 0
v -1920 -560 0
v -2000 -560 0
v -2080 -560 0
v -2160 -560 0
v -2240 -560 0
v -2320 -560 0
v -800 -640 0
v -880 -640 0
v -960 -640 0
v -1040 -640 0
v -1120 -640 0
v -1200 -640 0
v -1280 -640 0
v -1360 -640 0
v -1440 -640 0
v -1520 -640 0
v -1600 -640 0
v -1680 -640 0
v -1760 -640 0
v -1840 -640 0
v -1920 -640 0
v -2000 -640 0
v -2080 -640 0
v -2160 -640 0
v -2240 -640 0
v -2320 -640 0
v -2560 -640 0
v -2640 -640 0
v -2640 -560 0
v -2560 -560 0
v -2720 -640 0
v -2720 -560 0
v -2800 -640 0
v -2800 -560 0
v -2880 -640 0
v -2880 -560 0
v -2960 -640 0
v -2960 -560 0
v -480 -720 0
v -560 -720 0
v -560 -640 0
v -480 -640 0
v -640 -720 0
v -640 -640 0
v -720 -720 0
v -720 -640 0
v -800 -720 0
v -880 -720 0
v -960 -720 0
v -1040 -720 0
v -1120 -720 0
v -1200 -720 0
v -1280 -720 0
v -1360 -720 0
v -1440 -720 0
v -1520 -720 0
v -1600 -720 0
v -1680 -720 0
v -1760 -720 0
v -1840 -720 0
v -1920 -720 0
v -2000 -720 0
v -2080 -720 0
v -2160 -720 0
v -2240 -720 0
v -2320 -720 0
v -2400 -720 0
v -2400 -640 0
v -2480 -720 0
v -2480 -640 0
v -2560 -720 0
v -2640 -720 0
v -2720 -720 0
v -2800 -720 0
v -2880 -720 0
v -2960 -720 0
v -480 -800 0
v -560 -800 0
v -640 -800 0
v -720 -800 0
v -800 -800 0
v -880 -800 0
v -960 -800 0
v -1040 -800 0
v -1120 -800 0
v -1200 -800 0
v -1280 -800 0
v -1360 -800 0
v -1440 -800 0
v -1520 -800 0
v -1600 -800 0
v -1680 -800 0
v -1760 -800 0
v -1840 -800 0
v -1920 -800 0
v -2000 -800 0
v -2080 -800 0
v -2160 -800 0
v -2240 -800 0
v -2320 -800 0
v -2400 -800 0
v -2480 -800 0
v -2560 -800 0
v -2640 -800 0
v -2720 -800 0
v -2800 -800 0
v -2880 -800 0
v -2960 -800 0
v -480 -880 0
v -560 -880 0
v -640 -880 0
v -720 -880 0
v -800 -880 0
v -880 -880 0
v -960 -880 0
v -1040 -880 0
v -1120 -880 0
v -1200 -880 0
v -1280 -880 0
v -1360 -880 0
v -1440 -880 0
v -1520 -880 0
v -1600 -880 0
v -1680 -880 0
v -1760 -880 0
v -1840 -880 0
v -1920 -880 0
v -2000 -880 0
v -2080 -880 0
v -2160 -880 0
v -2240 -880 0
v -2320 -880 0
v -2400 -880 0
v -2480 -880 0
v -2560 -880 0
v -2640 -880 0
v -2720 -880 0
v -2800 -880 0
v -2880 -880 0
v -2960 -880 0
v -480 -960 0
v -560 -960 0
v -640 -960 0
v -720 -960 0
v -800 -960 0
v -880 -960 0
v -960 -960 0
v -1040 -960 0
v -1120 -960 0
v -1200 -960 0
v -1280 -960 0
v -1760 -960 0
v -1840 -960 0
v -1920 -960 0
v -2000 -960 0
v -2080 -960 0
v -2160 -960 0
v -2240 -960 0
v -2320 -960 0
v -2560 -960 0
v -2640 -960 0
v -2720 -960 0
v -2800 -960 0
v -2880 -960 0
v -2960 -960 0
v -480 -1040 0
v -560 -1040 0
v -640 -1040 0
v -720 -1040 0
v -800 -1040 0
v -880 -1040 0
v -960 -1040 0
v -1040 -1040 0
v -1120 -1040 0
v -1200 -1040 0
v -1280 -1040 0
v -1760 -1040 0
v -1840 -1040 0
v -1920 -1040 0
v -2000 -1040 0
v -2080 -1040 0
v -2160 -1040 0
v -2240 -1040 0
v -2320 -1040 0
v -480 -1120 0
v -560 -1120 0
v -640 -1120 0
v -720 -1120 0
v -800 -1120 0
v -880 -1120 0
v -960 -1120 0
v -1040 -1120 0
v -1120 -1120 0
v -1200 -1120 0
v -1280 -1120 0
v -1360 -1120 0
v -1360 -1040 0
v -1440 -1120 0
v -1440 -1040 0
v -1520 -1120 0
v -1520 -1040 0
v -1600 -1120 0
v -1600 -1040 0
v -1680 -1120 0
v -1680 -1040 0
v -1760 -1120 0
v -1840 -1120 0
v -1920 -1120 0
v -2000 -1120 0
v -2080 -1120 0
v -2160 -1120 0
v -2240 -1120 0
v -2320 -1120 0
v -2480 -560 0
v -2560 -480 0
v -2480 -480 0
v -2640 -480 0
v -2720 -480 0
v -2800 -480 0
v -2880 -480 0
v -2960 -480 0
v -3040 -560 0
v -3040 -480 0
v -2400 -560 0
v -3040 -640 0
v -3040 -720 0
v -3040 -800 0
v -3040 -880 0
v -1360 -960 0
v -1440 -960 0
v -1520 -960 0
v -1600 -960 0
v -1680 -960 0
v -2400 -960 0
v -2480 -960 0
v -3040 -960 0
v -2480 -1040 0
v -2560 -1040 0
v -2640 -1040 0
v -2720 -1040 0
v -2800 -1040 0
v -2880 -1040 0
v -2960 -1040 0
v -3040 -1040 0

# Texture cooridinates (Count = 64)
vt 0.2548082 3.051758E-05
vt 0.509523 3.051758E-05
vt 0.509523 0.2499695
vt 0.2548082 0.2499695
vt 0.5095853 0.2500305
vt 0.7643001 0.2500305
vt 0.7643001 0.4999695
vt 0.5095853 0.4999695
vt 0.2500153 0.3333469
vt 0.3749847 0.3333469
vt 0.3749847 0.4444309
vt 0.2500153 0.4444309
vt 0.6250153 1.358986E-05
vt 0.7499847 1.358986E-05
vt 0.7499847 0.1110976
vt 0.6250153 0.1110976
vt 0.3750153 0.3333469
vt 0.4999847 0.3333469
vt 0.4999847 0.4444309
vt 0.3750153 0.4444309
vt 0.6250153 0.1111247
vt 0.7499847 0.1111247
vt 0.7499847 0.2222087
vt 0.6250153 0.2222087
vt 0.2500153 0.1111247
vt 0.3749847 0.1111247
vt 0.3749847 0.2222087
vt 0.2500153 0.2222087
vt 0.1250153 0.1111247
vt 0.2499847 0.1111247
vt 0.2499847 0.2222087
vt 0.1250153 0.2222087
vt 0.3750153 0.1111247
vt 0.4999847 0.1111247
vt 0.4999847 0.2222087
vt 0.3750153 0.2222087
vt 0.5000153 0.1111247
vt 0.6249847 0.1111247
vt 0.6249847 0.2222087
vt 0.5000153 0.2222087
vt 0.2500153 1.358986E-05
vt 0.3749847 1.358986E-05
vt 0.3749847 0.1110976
vt 0.2500153 0.1110976
vt 1.525879E-05 1.358986E-05
vt 0.1249847 1.358986E-05
vt 0.1249847 0.1110976
vt 1.525879E-05 0.1110976
vt 0.3750153 1.358986E-05
vt 0.4999847 1.358986E-05
vt 0.4999847 0.1110976
vt 0.3750153 0.1110976
vt 0.5000153 1.358986E-05
vt 0.6249847 1.358986E-05
vt 0.6249847 0.1110976
vt 0.5000153 0.1110976
vt 0.2500153 0.2222358
vt 0.3749847 0.2222358
vt 0.3749847 0.3333198
vt 0.2500153 0.3333198
vt 0.3750153 0.2222358
vt 0.4999847 0.2222358
vt 0.4999847 0.3333198
vt 0.3750153 0.3333198

# Normal
vn 0 0 -1

# Groups (Count = 2)

g mesh_0001
f 1/1/1 2/2/1 3/3/1 4/4/1
f 2/1/1 5/2/1 6/3/1 3/4/1
f 5/1/1 7/2/1 8/3/1 6/4/1
f 7/1/1 9/2/1 10/3/1 8/4/1
f 9/1/1 11/2/1 12/3/1 10/4/1
f 11/1/1 13/2/1 14/3/1 12/4/1
f 13/1/1 15/2/1 16/3/1 14/4/1
f 15/1/1 17/2/1 18/3/1 16/4/1
f 17/1/1 19/2/1 20/3/1 18/4/1
f 19/1/1 21/2/1 22/3/1 20/4/1
f 21/1/1 23/2/1 24/3/1 22/4/1
f 23/1/1 25/2/1 26/3/1 24/4/1
f 25/1/1 27/2/1 28/3/1 26/4/1
f 27/1/1 29/2/1 30/3/1 28/4/1
f 29/1/1 31/2/1 32/3/1 30/4/1
f 31/1/1 33/2/1 34/3/1 32/4/1
f 33/1/1 35/2/1 36/3/1 34/4/1
f 35/1/1 37/2/1 38/3/1 36/4/1
f 37/1/1 39/2/1 40/3/1 38/4/1
f 41/1/1 42/2/1 2/3/1 1/4/1
f 42/5/1 43/6/1 5/7/1 2/8/1
f 43/5/1 44/6/1 7/7/1 5/8/1
f 44/5/1 45/6/1 9/7/1 7/8/1
f 45/5/1 46/6/1 11/7/1 9/8/1
f 46/5/1 47/6/1 13/7/1 11/8/1
f 47/1/1 48/2/1 15/3/1 13/4/1
f 48/1/1 49/2/1 17/3/1 15/4/1
f 49/1/1 50/2/1 19/3/1 17/4/1
f 50/1/1 51/2/1 21/3/1 19/4/1
f 51/1/1 52/2/1 23/3/1 21/4/1
f 52/1/1 53/2/1 25/3/1 23/4/1
f 53/5/1 54/6/1 27/7/1 25/8/1
f 54/5/1 55/6/1 29/7/1 27/8/1
f 55/5/1 56/6/1 31/7/1 29/8/1
f 56/5/1 57/6/1 33/7/1 31/8/1
f 57/5/1 58/6/1 35/7/1 33/8/1
f 58/5/1 59/6/1 37/7/1 35/8/1
f 59/1/1 60/2/1 39/3/1 37/4/1
f 61/1/1 62/2/1 42/3/1 41/4/1
f 62/5/1 63/6/1 43/7/1 42/8/1
f 63/5/1 64/6/1 44/7/1 43/8/1
f 64/5/1 65/6/1 45/7/1 44/8/1
f 65/5/1 66/6/1 46/7/1 45/8/1
f 66/5/1 67/6/1 47/7/1 46/8/1
f 67/1/1 68/2/1 48/3/1 47/4/1
f 68/1/1 69/2/1 49/3/1 48/4/1
f 69/1/1 70/2/1 50/3/1 49/4/1
f 70/1/1 71/2/1 51/3/1 50/4/1
f 71/1/1 72/2/1 52/3/1 51/4/1
f 72/1/1 73/2/1 53/3/1 52/4/1
f 73/5/1 74/6/1 54/7/1 53/8/1
f 74/5/1 75/6/1 55/7/1 54/8/1
f 75/5/1 76/6/1 56/7/1 55/8/1
f 76/5/1 77/6/1 57/7/1 56/8/1
f 77/5/1 78/6/1 58/7/1 57/8/1
f 78/5/1 79/6/1 59/7/1 58/8/1
f 79/1/1 80/2/1 60/3/1 59/4/1
f 81/5/1 82/6/1 83/7/1 84/8/1
f 82/5/1 85/6/1 86/7/1 83/8/1
f 85/5/1 87/6/1 88/7/1 86/8/1
f 87/5/1 89/6/1 90/7/1 88/8/1
f 89/5/1 91/6/1 92/7/1 90/8/1
f 93/1/1 94/2/1 95/3/1 96/4/1
f 94/1/1 97/2/1 98/3/1 95/4/1
f 97/1/1 99/2/1 100/3/1 98/4/1
f 99/1/1 101/2/1 61/3/1 100/4/1
f 101/1/1 102/2/1 62/3/1 61/4/1
f 102/5/1 103/6/1 63/7/1 62/8/1
f 103/5/1 104/6/1 64/7/1 63/8/1
f 104/5/1 105/6/1 65/7/1 64/8/1
f 105/5/1 106/6/1 66/7/1 65/8/1
f 106/5/1 107/6/1 67/7/1 66/8/1
f 107/5/1 108/6/1 68/7/1 67/8/1
f 108/5/1 109/6/1 69/7/1 68/8/1
f 109/5/1 110/6/1 70/7/1 69/8/1
f 110/5/1 111/6/1 71/7/1 70/8/1
f 111/5/1 112/6/1 72/7/1 71/8/1
f 112/5/1 113/6/1 73/7/1 72/8/1
f 113/5/1 114/6/1 74/7/1 73/8/1
f 114/5/1 115/6/1 75/7/1 74/8/1
f 115/5/1 116/6/1 76/7/1 75/8/1
f 116/5/1 117/6/1 77/7/1 76/8/1
f 117/5/1 118/6/1 78/7/1 77/8/1
f 118/5/1 119/6/1 79/7/1 78/8/1
f 120/5/1 121/6/1 122/7/1 80/8/1
f 121/5/1 123/6/1 124/7/1 122/8/1
f 123/5/1 125/6/1 81/7/1 124/8/1
f 125/5/1 126/6/1 82/7/1 81/8/1
f 126/5/1 127/6/1 85/7/1 82/8/1
f 127/5/1 128/6/1 87/7/1 85/8/1
f 128/5/1 129/6/1 89/7/1 87/8/1
f 129/5/1 130/6/1 91/7/1 89/8/1
f 131/1/1 132/2/1 94/3/1 93/4/1
f 132/5/1 133/6/1 97/7/1 94/8/1
f 133/5/1 134/6/1 99/7/1 97/8/1
f 134/5/1 135/6/1 101/7/1 99/8/1
f 135/5/1 136/6/1 102/7/1 101/8/1
f 136/5/1 137/6/1 103/7/1 102/8/1
f 137/5/1 138/6/1 104/7/1 103/8/1
f 138/5/1 139/6/1 105/7/1 104/8/1
f 139/5/1 140/6/1 106/7/1 105/8/1
f 140/5/1 141/6/1 107/7/1 106/8/1
f 141/5/1 142/6/1 108/7/1 107/8/1
f 142/5/1 143/6/1 109/7/1 108/8/1
f 143/5/1 144/6/1 110/7/1 109/8/1
f 144/5/1 145/6/1 111/7/1 110/8/1
f 145/5/1 146/6/1 112/7/1 111/8/1
f 146/5/1 147/6/1 113/7/1 112/8/1
f 147/5/1 148/6/1 114/7/1 113/8/1
f 148/5/1 149/6/1 115/7/1 114/8/1
f 149/5/1 150/6/1 116/7/1 115/8/1
f 150/5/1 151/6/1 117/7/1 116/8/1
f 151/5/1 152/6/1 118/7/1 117/8/1
f 152/5/1 153/6/1 119/7/1 118/8/1
f 154/5/1 155/6/1 121/7/1 120/8/1
f 155/5/1 156/6/1 123/7/1 121/8/1
f 156/5/1 157/6/1 125/7/1 123/8/1
f 157/5/1 158/6/1 126/7/1 125/8/1
f 158/5/1 159/6/1 127/7/1 126/8/1
f 159/5/1 160/6/1 128/7/1 127/8/1
f 160/5/1 161/6/1 129/7/1 128/8/1
f 161/5/1 162/6/1 130/7/1 129/8/1
f 163/1/1 164/2/1 132/3/1 131/4/1
f 164/5/1 165/6/1 133/7/1 132/8/1
f 165/5/1 166/6/1 134/7/1 133/8/1
f 166/5/1 167/6/1 135/7/1 134/8/1
f 167/5/1 168/6/1 136/7/1 135/8/1
f 168/5/1 169/6/1 137/7/1 136/8/1
f 169/5/1 170/6/1 138/7/1 137/8/1
f 170/5/1 171/6/1 139/7/1 138/8/1
f 171/5/1 172/6/1 140/7/1 139/8/1
f 172/5/1 173/6/1 141/7/1 140/8/1
f 173/5/1 174/6/1 142/7/1 141/8/1
f 174/5/1 175/6/1 143/7/1 142/8/1
f 175/5/1 176/6/1 144/7/1 143/8/1
f 176/5/1 177/6/1 145/7/1 144/8/1
f 177/5/1 178/6/1 146/7/1 145/8/1
f 178/5/1 179/6/1 147/7/1 146/8/1
f 179/5/1 180/6/1 148/7/1 147/8/1
f 180/5/1 181/6/1 149/7/1 148/8/1
f 181/5/1 182/6/1 150/7/1 149/8/1
f 182/5/1 183/6/1 151/7/1 150/8/1
f 183/5/1 184/6/1 152/7/1 151/8/1
f 184/5/1 185/6/1 153/7/1 152/8/1
f 186/5/1 187/6/1 155/7/1 154/8/1
f 187/5/1 188/6/1 156/7/1 155/8/1
f 188/5/1 189/6/1 157/7/1 156/8/1
f 189/5/1 190/6/1 158/7/1 157/8/1
f 190/5/1 191/6/1 159/7/1 158/8/1
f 191/5/1 192/6/1 160/7/1 159/8/1
f 192/5/1 193/6/1 161/7/1 160/8/1
f 193/5/1 194/6/1 162/7/1 161/8/1
f 195/1/1 196/2/1 164/3/1 163/4/1
f 196/5/1 197/6/1 165/7/1 164/8/1
f 197/5/1 198/6/1 166/7/1 165/8/1
f 198/1/1 199/2/1 167/3/1 166/4/1
f 199/1/1 200/2/1 168/3/1 167/4/1
f 200/5/1 201/6/1 169/7/1 168/8/1
f 201/5/1 202/6/1 170/7/1 169/8/1
f 202/5/1 203/6/1 171/7/1 170/8/1
f 203/5/1 204/6/1 172/7/1 171/8/1
f 204/5/1 205/6/1 173/7/1 172/8/1
f 206/5/1 207/6/1 180/7/1 179/8/1
f 207/5/1 208/6/1 181/7/1 180/8/1
f 208/5/1 209/6/1 182/7/1 181/8/1
f 209/5/1 210/6/1 183/7/1 182/8/1
f 210/5/1 211/6/1 184/7/1 183/8/1
f 211/5/1 212/6/1 185/7/1 184/8/1
f 212/1/1 213/2/1 186/3/1 185/4/1
f 214/5/1 215/6/1 190/7/1 189/8/1
f 215/5/1 216/6/1 191/7/1 190/8/1
f 216/5/1 217/6/1 192/7/1 191/8/1
f 217/5/1 218/6/1 193/7/1 192/8/1
f 218/5/1 219/6/1 194/7/1 193/8/1
f 220/1/1 221/2/1 196/3/1 195/4/1
f 221/5/1 222/6/1 197/7/1 196/8/1
f 222/5/1 223/6/1 198/7/1 197/8/1
f 223/1/1 224/2/1 199/3/1 198/4/1
f 224/1/1 225/2/1 200/3/1 199/4/1
f 225/5/1 226/6/1 201/7/1 200/8/1
f 226/5/1 227/6/1 202/7/1 201/8/1
f 227/5/1 228/6/1 203/7/1 202/8/1
f 228/5/1 229/6/1 204/7/1 203/8/1
f 229/5/1 230/6/1 205/7/1 204/8/1
f 231/5/1 232/6/1 207/7/1 206/8/1
f 232/5/1 233/6/1 208/7/1 207/8/1
f 233/5/1 234/6/1 209/7/1 208/8/1
f 234/5/1 235/6/1 210/7/1 209/8/1
f 235/5/1 236/6/1 211/7/1 210/8/1
f 236/5/1 237/6/1 212/7/1 211/8/1
f 237/1/1 238/2/1 213/3/1 212/4/1
f 239/1/1 240/2/1 221/3/1 220/4/1
f 240/5/1 241/6/1 222/7/1 221/8/1
f 241/5/1 242/6/1 223/7/1 222/8/1
f 242/1/1 243/2/1 224/3/1 223/4/1
f 243/1/1 244/2/1 225/3/1 224/4/1
f 244/1/1 245/2/1 226/3/1 225/4/1
f 245/1/1 246/2/1 227/3/1 226/4/1
f 246/1/1 247/2/1 228/3/1 227/4/1
f 247/1/1 248/2/1 229/3/1 228/4/1
f 248/1/1 249/2/1 230/3/1 229/4/1
f 249/1/1 250/2/1 251/3/1 230/4/1
f 250/1/1 252/2/1 253/3/1 251/4/1
f 252/1/1 254/2/1 255/3/1 253/4/1
f 254/1/1 256/2/1 257/3/1 255/4/1
f 256/1/1 258/2/1 259/3/1 257/4/1
f 258/1/1 260/2/1 231/3/1 259/4/1
f 260/1/1 261/2/1 232/3/1 231/4/1
f 261/1/1 262/2/1 233/3/1 232/4/1
f 262/1/1 263/2/1 234/3/1 233/4/1
f 263/1/1 264/2/1 235/3/1 234/4/1
f 264/1/1 265/2/1 236/3/1 235/4/1
f 265/1/1 266/2/1 237/3/1 236/4/1
f 266/1/1 267/2/1 238/3/1 237/4/1

g mesh_0002
f 1/9/1 2/10/1 3/11/1 4/12/1
f 2/13/1 5/14/1 6/15/1 3/16/1
f 5/13/1 7/14/1 8/15/1 6/16/1
f 7/13/1 9/14/1 10/15/1 8/16/1
f 9/13/1 11/14/1 12/15/1 10/16/1
f 11/13/1 13/14/1 14/15/1 12/16/1
f 13/13/1 15/14/1 16/15/1 14/16/1
f 15/13/1 17/14/1 18/15/1 16/16/1
f 17/13/1 19/14/1 20/15/1 18/16/1
f 19/13/1 21/14/1 22/15/1 20/16/1
f 21/13/1 23/14/1 24/15/1 22/16/1
f 23/13/1 25/14/1 26/15/1 24/16/1
f 25/13/1 27/14/1 28/15/1 26/16/1
f 27/13/1 29/14/1 30/15/1 28/16/1
f 29/13/1 31/14/1 32/15/1 30/16/1
f 31/13/1 33/14/1 34/15/1 32/16/1
f 33/13/1 35/14/1 36/15/1 34/16/1
f 35/13/1 37/14/1 38/15/1 36/16/1
f 37/17/1 39/18/1 40/19/1 38/20/1
f 41/21/1 42/22/1 2/23/1 1/24/1
f 47/25/1 48/26/1 15/27/1 13/28/1
f 48/29/1 49/30/1 17/31/1 15/32/1
f 49/29/1 50/30/1 19/31/1 17/32/1
f 50/29/1 51/30/1 21/31/1 19/32/1
f 51/29/1 52/30/1 23/31/1 21/32/1
f 52/33/1 53/34/1 25/35/1 23/36/1
f 59/37/1 60/38/1 39/39/1 37/40/1
f 268/9/1 84/10/1 269/11/1 270/12/1
f 84/13/1 83/14/1 271/15/1 269/16/1
f 83/13/1 86/14/1 272/15/1 271/16/1
f 86/13/1 88/14/1 273/15/1 272/16/1
f 88/13/1 90/14/1 274/15/1 273/16/1
f 90/13/1 92/14/1 275/15/1 274/16/1
f 92/17/1 276/18/1 277/19/1 275/20/1
f 61/21/1 62/22/1 42/23/1 41/24/1
f 67/41/1 68/42/1 48/43/1 47/44/1
f 68/45/1 69/46/1 49/47/1 48/48/1
f 69/45/1 70/46/1 50/47/1 49/48/1
f 70/45/1 71/46/1 51/47/1 50/48/1
f 71/45/1 72/46/1 52/47/1 51/48/1
f 72/49/1 73/50/1 53/51/1 52/52/1
f 79/37/1 80/38/1 60/39/1 59/40/1
f 80/13/1 122/14/1 278/15/1 60/16/1
f 122/13/1 124/14/1 268/15/1 278/16/1
f 124/49/1 81/50/1 84/51/1 268/52/1
f 91/37/1 279/38/1 276/39/1 92/40/1
f 93/9/1 94/10/1 95/11/1 96/12/1
f 94/13/1 97/14/1 98/15/1 95/16/1
f 97/13/1 99/14/1 100/15/1 98/16/1
f 99/13/1 101/14/1 61/15/1 100/16/1
f 101/49/1 102/50/1 62/51/1 61/52/1
f 130/37/1 280/38/1 279/39/1 91/40/1
f 131/21/1 132/22/1 94/23/1 93/24/1
f 162/37/1 281/38/1 280/39/1 130/40/1
f 163/21/1 164/22/1 132/23/1 131/24/1
f 194/37/1 282/38/1 281/39/1 162/40/1
f 195/21/1 196/22/1 164/23/1 163/24/1
f 198/25/1 199/26/1 167/27/1 166/28/1
f 199/33/1 200/34/1 168/35/1 167/36/1
f 205/25/1 283/26/1 174/27/1 173/28/1
f 283/29/1 284/30/1 175/31/1 174/32/1
f 284/29/1 285/30/1 176/31/1 175/32/1
f 285/29/1 286/30/1 177/31/1 176/32/1
f 286/29/1 287/30/1 178/31/1 177/32/1
f 287/33/1 206/34/1 179/35/1 178/36/1
f 212/37/1 213/38/1 186/39/1 185/40/1
f 213/53/1 288/54/1 187/55/1 186/56/1
f 288/53/1 289/54/1 188/55/1 187/56/1
f 289/33/1 214/34/1 189/35/1 188/36/1
f 219/37/1 290/38/1 282/39/1 194/40/1
f 220/21/1 221/22/1 196/23/1 195/24/1
f 223/37/1 224/38/1 199/39/1 198/40/1
f 224/21/1 225/22/1 200/23/1 199/24/1
f 230/41/1 251/42/1 283/43/1 205/44/1
f 251/45/1 253/46/1 284/47/1 283/48/1
f 253/45/1 255/46/1 285/47/1 284/48/1
f 255/45/1 257/46/1 286/47/1 285/48/1
f 257/45/1 259/46/1 287/47/1 286/48/1
f 259/49/1 231/50/1 206/51/1 287/52/1
f 237/37/1 238/38/1 213/39/1 212/40/1
f 291/57/1 292/58/1 214/59/1 289/60/1
f 292/53/1 293/54/1 215/55/1 214/56/1
f 293/53/1 294/54/1 216/55/1 215/56/1
f 294/53/1 295/54/1 217/55/1 216/56/1
f 295/53/1 296/54/1 218/55/1 217/56/1
f 296/53/1 297/54/1 219/55/1 218/56/1
f 297/61/1 298/62/1 290/63/1 219/64/1
f 239/21/1 240/22/1 221/23/1 220/24/1
f 242/37/1 243/38/1 224/39/1 223/40/1
f 243/57/1 244/58/1 225/59/1 224/60/1
f 244/53/1 245/54/1 226/55/1 225/56/1
f 245/53/1 246/54/1 227/55/1 226/56/1
f 246/53/1 247/54/1 228/55/1 227/56/1
f 247/53/1 248/54/1 229/55/1 228/56/1
f 248/53/1 249/54/1 230/55/1 229/56/1
f 249/53/1 250/54/1 251/55/1 230/56/1
f 250/53/1 252/54/1 253/55/1 251/56/1
f 252/53/1 254/54/1 255/55/1 253/56/1
f 254/53/1 256/54/1 257/55/1 255/56/1
f 256/53/1 258/54/1 259/55/1 257/56/1
f 258/53/1 260/54/1 231/55/1 259/56/1
f 260/53/1 261/54/1 232/55/1 231/56/1
f 261/53/1 262/54/1 233/55/1 232/56/1
f 262/53/1 263/54/1 234/55/1 233/56/1
f 263/53/1 264/54/1 235/55/1 234/56/1
f 264/53/1 265/54/1 236/55/1 235/56/1
f 265/53/1 266/54/1 237/55/1 236/56/1
f 266/61/1 267/62/1 238/63/1 237/64/1

g mesh_0003
f 65/5/1 66/6/1 46/7/1 45/8/1
f 207/5/1 208/6/1 181/7/1 180/8/1
f 232/5/1 233/6/1 208/7/1 207/8/1

