# Wavefront OBJ file automatically generated by Tiled2Unity

# Vertices (Count = 157)
v -9 -1 0
v -10 -1 0
v -10 0 0
v -9 0 0
v -11 -1 0
v -11 0 0
v -12 -1 0
v -12 0 0
v -13 -1 0
v -13 0 0
v -14 -1 0
v -14 0 0
v -15 -1 0
v -15 0 0
v -16 -1 0
v -16 0 0
v -17 -1 0
v -17 0 0
v -18 -1 0
v -18 0 0
v -19 -1 0
v -19 0 0
v -20 -1 0
v -20 0 0
v -21 -1 0
v -21 0 0
v -22 -1 0
v -22 0 0
v -23 -1 0
v -23 0 0
v -9 -2 0
v -10 -2 0
v -11 -2 0
v -12 -2 0
v -13 -2 0
v -14 -2 0
v -18 -2 0
v -19 -2 0
v -20 -2 0
v -21 -2 0
v -22 -2 0
v -23 -2 0
v -9 -3 0
v -10 -3 0
v -11 -3 0
v -12 -3 0
v -13 -3 0
v -14 -3 0
v -15 -3 0
v -15 -2 0
v -16 -3 0
v -16 -2 0
v -17 -3 0
v -17 -2 0
v -18 -3 0
v -19 -3 0
v -20 -3 0
v -21 -3 0
v -22 -3 0
v -6 -4 0
v -7 -4 0
v -7 -3 0
v -6 -3 0
v -8 -4 0
v -8 -3 0
v -9 -4 0
v -10 -4 0
v -11 -4 0
v -12 -4 0
v -13 -4 0
v -14 -4 0
v -15 -4 0
v -16 -4 0
v -17 -4 0
v -18 -4 0
v -19 -4 0
v -20 -4 0
v -21 -4 0
v -22 -4 0
v -6 -5 0
v -7 -5 0
v -8 -5 0
v -9 -5 0
v -10 -5 0
v -11 -5 0
v -12 -5 0
v -13 -5 0
v -14 -5 0
v -15 -5 0
v -16 -5 0
v -17 -5 0
v -18 -5 0
v -19 -5 0
v -20 -5 0
v -21 -5 0
v -22 -5 0
v -6 -6 0
v -7 -6 0
v -8 -6 0
v -9 -6 0
v -10 -6 0
v -11 -6 0
v -12 -6 0
v -13 -6 0
v -14 -6 0
v -18 -6 0
v -19 -6 0
v -20 -6 0
v -21 -6 0
v -22 -6 0
v -23 -6 0
v -23 -5 0
v -6 -7 0
v -7 -7 0
v -8 -7 0
v -9 -7 0
v -10 -7 0
v -11 -7 0
v -12 -7 0
v -13 -7 0
v -14 -7 0
v -15 -7 0
v -15 -6 0
v -16 -7 0
v -16 -6 0
v -17 -7 0
v -17 -6 0
v -18 -7 0
v -19 -7 0
v -20 -7 0
v -21 -7 0
v -22 -7 0
v -23 -7 0
v -6 -8 0
v -7 -8 0
v -8 -8 0
v -9 -8 0
v -10 -8 0
v -11 -8 0
v -6 -9 0
v -7 -9 0
v -8 -9 0
v -9 -9 0
v -10 -9 0
v -11 -9 0
v -6 -10 0
v -7 -10 0
v -8 -10 0
v -9 -10 0
v -10 -10 0
v -11 -10 0
v -6 -11 0
v -7 -11 0
v -8 -11 0
v -9 -11 0
v -10 -11 0
v -11 -11 0

# Texture cooridinates (Count = 8)
vt 0.2548082 3.051758E-05
vt 0.509523 3.051758E-05
vt 0.509523 0.2499695
vt 0.2548082 0.2499695
vt 0.5095853 0.2500305
vt 0.7643001 0.2500305
vt 0.7643001 0.4999695
vt 0.5095853 0.4999695

# Normal
vn 0 0 -1

# Groups (Count = 1)

g mesh_0001
f 1/1/1 2/2/1 3/3/1 4/4/1
f 2/1/1 5/2/1 6/3/1 3/4/1
f 5/1/1 7/2/1 8/3/1 6/4/1
f 7/1/1 9/2/1 10/3/1 8/4/1
f 9/1/1 11/2/1 12/3/1 10/4/1
f 11/1/1 13/2/1 14/3/1 12/4/1
f 13/1/1 15/2/1 16/3/1 14/4/1
f 15/1/1 17/2/1 18/3/1 16/4/1
f 17/1/1 19/2/1 20/3/1 18/4/1
f 19/1/1 21/2/1 22/3/1 20/4/1
f 21/1/1 23/2/1 24/3/1 22/4/1
f 23/1/1 25/2/1 26/3/1 24/4/1
f 25/1/1 27/2/1 28/3/1 26/4/1
f 27/1/1 29/2/1 30/3/1 28/4/1
f 31/1/1 32/2/1 2/3/1 1/4/1
f 32/5/1 33/6/1 5/7/1 2/8/1
f 33/5/1 34/6/1 7/7/1 5/8/1
f 34/5/1 35/6/1 9/7/1 7/8/1
f 35/5/1 36/6/1 11/7/1 9/8/1
f 37/5/1 38/6/1 21/7/1 19/8/1
f 38/5/1 39/6/1 23/7/1 21/8/1
f 39/5/1 40/6/1 25/7/1 23/8/1
f 40/5/1 41/6/1 27/7/1 25/8/1
f 41/1/1 42/2/1 29/3/1 27/4/1
f 43/1/1 44/2/1 32/3/1 31/4/1
f 44/5/1 45/6/1 33/7/1 32/8/1
f 45/5/1 46/6/1 34/7/1 33/8/1
f 46/5/1 47/6/1 35/7/1 34/8/1
f 47/5/1 48/6/1 36/7/1 35/8/1
f 48/5/1 49/6/1 50/7/1 36/8/1
f 49/5/1 51/6/1 52/7/1 50/8/1
f 51/5/1 53/6/1 54/7/1 52/8/1
f 53/5/1 55/6/1 37/7/1 54/8/1
f 55/5/1 56/6/1 38/7/1 37/8/1
f 56/5/1 57/6/1 39/7/1 38/8/1
f 57/5/1 58/6/1 40/7/1 39/8/1
f 58/5/1 59/6/1 41/7/1 40/8/1
f 60/1/1 61/2/1 62/3/1 63/4/1
f 61/1/1 64/2/1 65/3/1 62/4/1
f 64/1/1 66/2/1 43/3/1 65/4/1
f 66/1/1 67/2/1 44/3/1 43/4/1
f 67/5/1 68/6/1 45/7/1 44/8/1
f 68/5/1 69/6/1 46/7/1 45/8/1
f 69/5/1 70/6/1 47/7/1 46/8/1
f 70/5/1 71/6/1 48/7/1 47/8/1
f 71/5/1 72/6/1 49/7/1 48/8/1
f 72/5/1 73/6/1 51/7/1 49/8/1
f 73/5/1 74/6/1 53/7/1 51/8/1
f 74/5/1 75/6/1 55/7/1 53/8/1
f 75/5/1 76/6/1 56/7/1 55/8/1
f 76/5/1 77/6/1 57/7/1 56/8/1
f 77/5/1 78/6/1 58/7/1 57/8/1
f 78/5/1 79/6/1 59/7/1 58/8/1
f 80/1/1 81/2/1 61/3/1 60/4/1
f 81/5/1 82/6/1 64/7/1 61/8/1
f 82/5/1 83/6/1 66/7/1 64/8/1
f 83/5/1 84/6/1 67/7/1 66/8/1
f 84/5/1 85/6/1 68/7/1 67/8/1
f 85/5/1 86/6/1 69/7/1 68/8/1
f 86/5/1 87/6/1 70/7/1 69/8/1
f 87/5/1 88/6/1 71/7/1 70/8/1
f 88/5/1 89/6/1 72/7/1 71/8/1
f 89/5/1 90/6/1 73/7/1 72/8/1
f 90/5/1 91/6/1 74/7/1 73/8/1
f 91/5/1 92/6/1 75/7/1 74/8/1
f 92/5/1 93/6/1 76/7/1 75/8/1
f 93/5/1 94/6/1 77/7/1 76/8/1
f 94/5/1 95/6/1 78/7/1 77/8/1
f 95/5/1 96/6/1 79/7/1 78/8/1
f 97/1/1 98/2/1 81/3/1 80/4/1
f 98/5/1 99/6/1 82/7/1 81/8/1
f 99/5/1 100/6/1 83/7/1 82/8/1
f 100/5/1 101/6/1 84/7/1 83/8/1
f 101/5/1 102/6/1 85/7/1 84/8/1
f 102/5/1 103/6/1 86/7/1 85/8/1
f 103/5/1 104/6/1 87/7/1 86/8/1
f 104/5/1 105/6/1 88/7/1 87/8/1
f 106/5/1 107/6/1 93/7/1 92/8/1
f 107/5/1 108/6/1 94/7/1 93/8/1
f 108/5/1 109/6/1 95/7/1 94/8/1
f 109/5/1 110/6/1 96/7/1 95/8/1
f 110/1/1 111/2/1 112/3/1 96/4/1
f 113/1/1 114/2/1 98/3/1 97/4/1
f 114/5/1 115/6/1 99/7/1 98/8/1
f 115/5/1 116/6/1 100/7/1 99/8/1
f 116/5/1 117/6/1 101/7/1 100/8/1
f 117/1/1 118/2/1 102/3/1 101/4/1
f 118/1/1 119/2/1 103/3/1 102/4/1
f 119/1/1 120/2/1 104/3/1 103/4/1
f 120/1/1 121/2/1 105/3/1 104/4/1
f 121/1/1 122/2/1 123/3/1 105/4/1
f 122/1/1 124/2/1 125/3/1 123/4/1
f 124/1/1 126/2/1 127/3/1 125/4/1
f 126/1/1 128/2/1 106/3/1 127/4/1
f 128/1/1 129/2/1 107/3/1 106/4/1
f 129/1/1 130/2/1 108/3/1 107/4/1
f 130/1/1 131/2/1 109/3/1 108/4/1
f 131/1/1 132/2/1 110/3/1 109/4/1
f 132/1/1 133/2/1 111/3/1 110/4/1
f 134/1/1 135/2/1 114/3/1 113/4/1
f 135/5/1 136/6/1 115/7/1 114/8/1
f 136/5/1 137/6/1 116/7/1 115/8/1
f 137/5/1 138/6/1 117/7/1 116/8/1
f 138/1/1 139/2/1 118/3/1 117/4/1
f 140/1/1 141/2/1 135/3/1 134/4/1
f 141/5/1 142/6/1 136/7/1 135/8/1
f 142/5/1 143/6/1 137/7/1 136/8/1
f 143/5/1 144/6/1 138/7/1 137/8/1
f 144/1/1 145/2/1 139/3/1 138/4/1
f 146/1/1 147/2/1 141/3/1 140/4/1
f 147/5/1 148/6/1 142/7/1 141/8/1
f 148/5/1 149/6/1 143/7/1 142/8/1
f 149/5/1 150/6/1 144/7/1 143/8/1
f 150/1/1 151/2/1 145/3/1 144/4/1
f 152/1/1 153/2/1 147/3/1 146/4/1
f 153/5/1 154/6/1 148/7/1 147/8/1
f 154/5/1 155/6/1 149/7/1 148/8/1
f 155/5/1 156/6/1 150/7/1 149/8/1
f 156/1/1 157/2/1 151/3/1 150/4/1

