# Wavefront OBJ file automatically generated by Tiled2Unity

# Vertices (Count = 44)
v -8 -3 0
v -9 -3 0
v -9 -2 0
v -8 -2 0
v -10 -3 0
v -10 -2 0
v -11 -3 0
v -11 -2 0
v -8 -4 0
v -9 -4 0
v -10 -4 0
v -11 -4 0
v -5 -5 0
v -6 -5 0
v -6 -4 0
v -5 -4 0
v -7 -5 0
v -7 -4 0
v -8 -5 0
v -9 -5 0
v -10 -5 0
v -11 -5 0
v -5 -6 0
v -6 -6 0
v -7 -6 0
v -8 -6 0
v -9 -6 0
v -10 -6 0
v -11 -6 0
v -5 -7 0
v -6 -7 0
v -7 -7 0
v -8 -7 0
v -9 -7 0
v -10 -7 0
v -11 -7 0
v -8 -8 0
v -9 -8 0
v -10 -8 0
v -11 -8 0
v -8 -9 0
v -9 -9 0
v -10 -9 0
v -11 -9 0

# Texture cooridinates (Count = 4)
vt 0.5095853 0.2500305
vt 0.7643001 0.2500305
vt 0.7643001 0.4999695
vt 0.5095853 0.4999695

# Normal
vn 0 0 -1

# Groups (Count = 1)

g mesh_0001
f 1/1/1 2/2/1 3/3/1 4/4/1
f 2/1/1 5/2/1 6/3/1 3/4/1
f 5/1/1 7/2/1 8/3/1 6/4/1
f 9/1/1 10/2/1 2/3/1 1/4/1
f 10/1/1 11/2/1 5/3/1 2/4/1
f 11/1/1 12/2/1 7/3/1 5/4/1
f 13/1/1 14/2/1 15/3/1 16/4/1
f 14/1/1 17/2/1 18/3/1 15/4/1
f 17/1/1 19/2/1 9/3/1 18/4/1
f 19/1/1 20/2/1 10/3/1 9/4/1
f 20/1/1 21/2/1 11/3/1 10/4/1
f 21/1/1 22/2/1 12/3/1 11/4/1
f 23/1/1 24/2/1 14/3/1 13/4/1
f 24/1/1 25/2/1 17/3/1 14/4/1
f 25/1/1 26/2/1 19/3/1 17/4/1
f 26/1/1 27/2/1 20/3/1 19/4/1
f 27/1/1 28/2/1 21/3/1 20/4/1
f 28/1/1 29/2/1 22/3/1 21/4/1
f 30/1/1 31/2/1 24/3/1 23/4/1
f 31/1/1 32/2/1 25/3/1 24/4/1
f 32/1/1 33/2/1 26/3/1 25/4/1
f 33/1/1 34/2/1 27/3/1 26/4/1
f 34/1/1 35/2/1 28/3/1 27/4/1
f 35/1/1 36/2/1 29/3/1 28/4/1
f 37/1/1 38/2/1 34/3/1 33/4/1
f 38/1/1 39/2/1 35/3/1 34/4/1
f 39/1/1 40/2/1 36/3/1 35/4/1
f 41/1/1 42/2/1 38/3/1 37/4/1
f 42/1/1 43/2/1 39/3/1 38/4/1
f 43/1/1 44/2/1 40/3/1 39/4/1

